<?xml version="1.0" encoding="iso-8859-1"?>
<!-- Generator: Adobe Illustrator 19.0.0, SVG Export Plug-In . SVG Version: 6.00 Build 0)  -->
<svg version="1.1" id="Layer_1" xmlns="http://www.w3.org/2000/svg" xmlns:xlink="http://www.w3.org/1999/xlink" x="0px" y="0px"
	 viewBox="0 0 390 390" style="enable-background:new 0 0 390 390;" xml:space="preserve">
<g id="XMLID_63_">
	<path id="XMLID_3687_" style="fill:#F87F6E;" d="M328.167,65H61.833C47.014,65,35,52.986,35,38.167v-1.333
		C35,22.014,47.014,10,61.833,10h266.333C342.986,10,355,22.014,355,36.833v1.333C355,52.986,342.986,65,328.167,65z"/>
	<path id="XMLID_3683_" style="fill:#4CD1B6;" d="M297.5,125c-16,40.97-55.86,70-102.5,70s-86.5-29.03-102.5-70H297.5z"/>
	<path id="XMLID_3679_" style="fill:#ECF0F1;" d="M305,65v20c0,14.11-2.66,27.6-7.5,40h-205C87.66,112.6,85,99.11,85,85V65H305z"/>
	<path id="XMLID_3675_" style="fill:#F87F6E;" d="M61.833,325h266.333c14.82,0,26.833,12.014,26.833,26.833v1.333
		c0,14.82-12.014,26.833-26.833,26.833H61.833C47.014,380,35,367.986,35,353.167v-1.333C35,337.014,47.014,325,61.833,325z"/>
	<path id="XMLID_3670_" style="fill:#ECF0F1;" d="M195,195L195,195c60.751,0,110,49.249,110,110v20H85v-20
		C85,244.249,134.249,195,195,195z"/>
	<polygon id="XMLID_3666_" style="fill:#4CD1B6;" points="140.715,325 195,267.761 249.285,325 	"/>
	<g id="XMLID_29_">
		<path id="XMLID_663_" style="fill:#231F20;" d="M306.812,128.643c0.001-0.002,0.002-0.005,0.003-0.007
			C312.246,114.722,315,100.04,315,85V75h13.167C348.477,75,365,58.477,365,38.167v-1.334C365,16.523,348.477,0,328.167,0H61.833
			C41.523,0,25,16.523,25,36.833v1.334C25,58.477,41.523,75,61.833,75H75v10c0,15.039,2.753,29.72,8.184,43.633
			c0.001,0.001,0.001,0.003,0.001,0.004c8.689,22.248,23.684,41.245,43.364,54.935c6.488,4.513,13.344,8.331,20.475,11.447
			C104.669,213.567,75,255.881,75,305v10H61.833C41.523,315,25,331.523,25,351.833v1.334C25,373.477,41.523,390,61.833,390h266.333
			c20.31,0,36.833-16.523,36.833-36.833v-1.334c0-20.31-16.523-36.833-36.833-36.833H315v-10c0-49.119-29.669-91.432-72.024-109.98
			c7.131-3.116,13.987-6.934,20.475-11.446C283.129,169.884,298.124,150.889,306.812,128.643z M45,38.167v-1.334
			C45,27.551,52.551,20,61.833,20h266.333C337.449,20,345,27.551,345,36.833v1.334C345,47.449,337.449,55,328.167,55H61.833
			C52.551,55,45,47.449,45,38.167z M295,75v10c0,10.269-1.537,20.33-4.576,30H99.576C96.537,105.33,95,95.269,95,85V75H295z
			 M195,282.293L226.02,315h-62.039L195,282.293z M95,305c0-51.766,39.538-94.468,90-99.501v58.275L136.418,315H95V305z
			 M345,351.833v1.334c0,9.282-7.551,16.833-16.833,16.833H61.833C52.551,370,45,362.449,45,353.167v-1.334
			C45,342.551,52.551,335,61.833,335h266.333C337.449,335,345,342.551,345,351.833z M295,305v10h-41.416L205,263.773v-58.275
			C255.463,210.532,295,253.234,295,305z M108.338,135h173.324c-17.658,30.792-50.265,50-86.662,50S125.996,165.792,108.338,135z"/>
	</g>
</g>
<g>
</g>
<g>
</g>
<g>
</g>
<g>
</g>
<g>
</g>
<g>
</g>
<g>
</g>
<g>
</g>
<g>
</g>
<g>
</g>
<g>
</g>
<g>
</g>
<g>
</g>
<g>
</g>
<g>
</g>
</svg>
