<?xml version="1.0" encoding="iso-8859-1"?>
<!-- Generator: Adobe Illustrator 19.0.0, SVG Export Plug-In . SVG Version: 6.00 Build 0)  -->
<svg version="1.1" id="Layer_1" xmlns="http://www.w3.org/2000/svg" xmlns:xlink="http://www.w3.org/1999/xlink" x="0px" y="0px"
	 viewBox="0 0 400 400" style="enable-background:new 0 0 400 400;" xml:space="preserve">
<g id="XMLID_127_">
	<rect id="XMLID_3418_" x="10" y="14.749" style="fill:#4CD1B6;" width="380" height="80"/>
	<rect id="XMLID_3408_" x="70" y="55.249" style="fill:#ECF0F1;" width="260" height="325"/>
	<g id="XMLID_126_">
		<path id="XMLID_2009_" style="fill:#231F20;" d="M146,119.749h108c5.522,0,10-4.477,10-10s-4.478-10-10-10H146
			c-5.522,0-10,4.477-10,10S140.478,119.749,146,119.749z"/>
		<path id="XMLID_2021_" style="fill:#231F20;" d="M122.5,159.749h155c5.522,0,10-4.477,10-10s-4.478-10-10-10h-155
			c-5.522,0-10,4.477-10,10S116.978,159.749,122.5,159.749z"/>
		<path id="XMLID_2022_" style="fill:#231F20;" d="M277.5,179.749H225c-5.522,0-10,4.477-10,10s4.478,10,10,10h52.5
			c5.522,0,10-4.477,10-10S283.022,179.749,277.5,179.749z"/>
		<path id="XMLID_2023_" style="fill:#231F20;" d="M122.5,199.749H192c5.522,0,10-4.477,10-10s-4.478-10-10-10h-69.5
			c-5.522,0-10,4.477-10,10S116.978,199.749,122.5,199.749z"/>
		<path id="XMLID_2024_" style="fill:#231F20;" d="M122.5,239.749h155c5.522,0,10-4.477,10-10s-4.478-10-10-10h-155
			c-5.522,0-10,4.477-10,10S116.978,239.749,122.5,239.749z"/>
		<path id="XMLID_2025_" style="fill:#231F20;" d="M122.5,319.749h87c5.522,0,10-4.477,10-10s-4.478-10-10-10h-87
			c-5.522,0-10,4.477-10,10S116.978,319.749,122.5,319.749z"/>
		<path id="XMLID_2026_" style="fill:#231F20;" d="M122.5,279.749h155c5.522,0,10-4.477,10-10s-4.478-10-10-10h-155
			c-5.522,0-10,4.477-10,10S116.978,279.749,122.5,279.749z"/>
		<path id="XMLID_2029_" style="fill:#231F20;" d="M390,4.749H10c-5.522,0-10,4.477-10,10v80c0,5.523,4.478,10,10,10h50
			c0,0-0.123,281.604,0.442,283.44c1.623,5.278,7.215,8.24,12.498,6.618l29.564-9.096l29.564,9.096c1.916,0.589,3.965,0.589,5.881,0
			l29.56-9.095l29.561,9.095c1.916,0.59,3.965,0.59,5.881,0l29.56-9.095l29.558,9.095c1.918,0.59,3.967,0.59,5.883,0l29.555-9.095
			l29.553,9.095c0.98,0.302,1.97,0.445,2.944,0.445c4.274,0,8.231-2.763,9.555-7.061c0.565-1.837,0.442-283.441,0.442-283.441h50
			c5.522,0,10-4.477,10-10v-80C400,9.226,395.522,4.749,390,4.749z M320,371.708l-19.553-6.017c-1.916-0.59-3.967-0.59-5.883,0
			l-29.555,9.095l-29.558-9.095c-1.918-0.59-3.966-0.59-5.882,0l-29.56,9.095l-29.561-9.095c-1.916-0.59-3.965-0.59-5.881,0
			l-29.56,9.095l-29.564-9.096c-1.916-0.589-3.965-0.589-5.881,0L80,371.71V65.249h240V371.708z M380,84.749h-40v-29.5
			c0-5.523-4.478-10-10-10H70c-5.522,0-10,4.477-10,10v29.5H20v-60h360V84.749z"/>
	</g>
</g>
<g>
</g>
<g>
</g>
<g>
</g>
<g>
</g>
<g>
</g>
<g>
</g>
<g>
</g>
<g>
</g>
<g>
</g>
<g>
</g>
<g>
</g>
<g>
</g>
<g>
</g>
<g>
</g>
<g>
</g>
</svg>
