<?xml version="1.0" encoding="iso-8859-1"?>
<!-- Generator: Adobe Illustrator 19.0.0, SVG Export Plug-In . SVG Version: 6.00 Build 0)  -->
<svg version="1.1" id="Layer_1" xmlns="http://www.w3.org/2000/svg" xmlns:xlink="http://www.w3.org/1999/xlink" x="0px" y="0px"
	 viewBox="0 0 390 390" style="enable-background:new 0 0 390 390;" xml:space="preserve">
<g id="XMLID_37_">
	<path id="XMLID_3314_" style="fill:#4CD1B6;" d="M360,198.751H30c-11.046,0-20-8.954-20-20v0c0-11.046,8.954-20,20-20h330
		c11.046,0,20,8.954,20,20v0C380,189.797,371.046,198.751,360,198.751z"/>
	<path id="XMLID_3303_" style="fill:#ECF0F1;" d="M312,356.251c-69.983,0-164.017,0-234,0c-12.35-50-19.7-107.5-32.05-157.5
		c94.683,0,203.417,0,298.1,0C331.695,248.77,324.354,306.233,312,356.251z"/>
	<g id="XMLID_78_">
		<path id="XMLID_133_" style="fill:#231F20;" d="M360,148.751h-75.946L238.33,30.154c-1.986-5.154-7.777-7.72-12.928-5.733
			c-5.152,1.987-7.72,7.775-5.732,12.928l42.95,111.403H127.38l42.95-111.403c1.987-5.153-0.58-10.941-5.732-12.928
			c-5.156-1.986-10.941,0.58-12.928,5.733l-45.724,118.597H30c-16.542,0-30,13.458-30,30s13.458,30,30,30h8.064
			c5.286,22.615,23.98,124.602,30.228,149.898c1.103,4.465,5.108,7.602,9.708,7.602h234c4.6,0,8.605-3.137,9.708-7.602
			c6.251-25.305,24.94-127.276,30.228-149.898H360c16.542,0,30-13.458,30-30S376.542,148.751,360,148.751z M304.118,346.251H85.883
			c-5.286-22.615-22.356-115.762-27.291-137.5h272.816C326.472,230.495,309.405,323.631,304.118,346.251z M360,188.751H30
			c-5.514,0-10-4.486-10-10s4.486-10,10-10h330c5.514,0,10,4.486,10,10S365.514,188.751,360,188.751z"/>
		<path id="XMLID_1958_" style="fill:#231F20;" d="M195,326.251c5.522,0,10-4.477,10-10v-77.5c0-5.523-4.478-10-10-10
			s-10,4.477-10,10v77.5C185,321.774,189.478,326.251,195,326.251z"/>
		<path id="XMLID_1968_" style="fill:#231F20;" d="M235,326.251c5.522,0,10-4.477,10-10v-77.5c0-5.523-4.478-10-10-10
			s-10,4.477-10,10v77.5C225,321.774,229.478,326.251,235,326.251z"/>
		<path id="XMLID_1969_" style="fill:#231F20;" d="M275,326.251c5.522,0,10-4.477,10-10v-77.5c0-5.523-4.478-10-10-10
			s-10,4.477-10,10v77.5C265,321.774,269.478,326.251,275,326.251z"/>
		<path id="XMLID_1970_" style="fill:#231F20;" d="M115,326.251c5.522,0,10-4.477,10-10v-77.5c0-5.523-4.478-10-10-10
			s-10,4.477-10,10v77.5C105,321.774,109.478,326.251,115,326.251z"/>
		<path id="XMLID_1971_" style="fill:#231F20;" d="M155,326.251c5.522,0,10-4.477,10-10v-77.5c0-5.523-4.478-10-10-10
			s-10,4.477-10,10v77.5C145,321.774,149.478,326.251,155,326.251z"/>
	</g>
</g>
<g>
</g>
<g>
</g>
<g>
</g>
<g>
</g>
<g>
</g>
<g>
</g>
<g>
</g>
<g>
</g>
<g>
</g>
<g>
</g>
<g>
</g>
<g>
</g>
<g>
</g>
<g>
</g>
<g>
</g>
</svg>
