<?xml version="1.0" encoding="iso-8859-1"?>
<!-- Generator: Adobe Illustrator 19.0.0, SVG Export Plug-In . SVG Version: 6.00 Build 0)  -->
<svg version="1.1" id="Layer_1" xmlns="http://www.w3.org/2000/svg" xmlns:xlink="http://www.w3.org/1999/xlink" x="0px" y="0px"
	 viewBox="0 0 437.003 437.003" style="enable-background:new 0 0 437.003 437.003;" xml:space="preserve">
<g id="XMLID_67_">
	
		<rect id="XMLID_3264_" x="181.326" y="91.92" transform="matrix(0.2588 0.9659 -0.9659 0.2588 376.1272 -119.3383)" style="fill:#ECF0F1;" width="169" height="187"/>
	<circle id="XMLID_3260_" style="fill:#ECF0F1;" cx="151.42" cy="370.849" r="35"/>
	
		<rect id="XMLID_3256_" x="240.826" y="100.92" transform="matrix(0.9659 -0.2588 0.2588 0.9659 -38.9325 75.1189)" style="fill:#4CD1B6;" width="50" height="169"/>
	
		<rect id="XMLID_66_" x="159.373" y="266.359" transform="matrix(-0.9659 0.2588 -0.2588 -0.9659 649.8809 487.1603)" style="fill:#F87F6E;" width="267" height="40"/>
	
		<rect id="XMLID_65_" x="33.457" y="38.088" transform="matrix(0.9659 -0.2588 0.2588 0.9659 -12.889 18.2738)" style="fill:#F87F6E;" width="59" height="40"/>
	<g id="XMLID_1926_">
		<path id="XMLID_1945_" style="fill:#231F20;" d="M436.659,268.537l-10.353-38.637c-0.687-2.562-2.362-4.746-4.659-6.072
			c-2.296-1.325-5.024-1.685-7.588-0.999l-28.978,7.765L343.929,77.011c-0.687-2.562-2.362-4.746-4.659-6.072
			c-2.297-1.326-5.025-1.685-7.588-0.999L151.053,118.34c-5.334,1.429-8.5,6.913-7.071,12.248l41.152,153.582l-19.319,5.176
			l-69.881-260.8c-0.687-2.562-2.362-4.746-4.659-6.072c-2.297-1.326-5.027-1.685-7.588-0.999l-56.99,15.271
			c-5.334,1.429-8.5,6.913-7.071,12.248L29.979,87.63c1.429,5.334,6.908,8.501,12.248,7.071l47.331-12.682l65.365,243.947
			c-5.027-0.389-10.136,0.073-15.15,1.417c-11.61,3.111-21.314,10.557-27.324,20.966c-6.01,10.41-7.606,22.536-4.495,34.147
			c3.111,11.61,10.557,21.314,20.967,27.324c6.934,4.003,14.629,6.048,22.427,6.048c3.908,0,7.844-0.514,11.72-1.553
			c23.967-6.422,38.242-31.146,31.819-55.114c-1.343-5.014-3.499-9.669-6.349-13.828l241.05-64.589
			C434.923,279.356,438.089,273.872,436.659,268.537z M46.71,72.794l-5.176-19.318l37.671-10.094L84.381,62.7L46.71,72.794z
			 M261.033,109.577l38.564,143.923l-28.978,7.765l-38.564-143.923L261.033,109.577z M365.763,235.77l-46.847,12.553L280.352,104.4
			l46.847-12.553L365.763,235.77z M212.737,122.518L251.3,266.44l-46.847,12.553L165.889,135.07L212.737,122.518z M157.891,394.997
			c-6.451,1.729-13.187,0.841-18.97-2.498c-5.783-3.339-9.92-8.73-11.648-15.181c-1.728-6.45-0.841-13.187,2.498-18.97
			c3.339-5.783,8.73-9.919,15.18-11.648c2.154-0.577,4.339-0.863,6.512-0.863c4.331,0,8.607,1.136,12.458,3.36
			c5.783,3.339,9.92,8.73,11.648,15.181C179.136,377.694,171.206,391.429,157.891,394.997z M176.169,327.983l-5.176-19.318
			l238.583-63.929l5.176,19.318L176.169,327.983z"/>
		<circle id="XMLID_1964_" style="fill:#231F20;" cx="151.42" cy="370.849" r="10"/>
		<path id="XMLID_1965_" style="fill:#231F20;" d="M85,209.858H10c-5.523,0-10,4.477-10,10s4.477,10,10,10h75
			c5.523,0,10-4.477,10-10S90.523,209.858,85,209.858z"/>
		<path id="XMLID_1966_" style="fill:#231F20;" d="M85,249.858H30c-5.523,0-10,4.477-10,10c0,5.523,4.477,10,10,10h55
			c5.523,0,10-4.477,10-10C95,254.335,90.523,249.858,85,249.858z"/>
		<path id="XMLID_1967_" style="fill:#231F20;" d="M85,289.858H49c-5.523,0-10,4.477-10,10s4.477,10,10,10h36
			c5.523,0,10-4.477,10-10S90.523,289.858,85,289.858z"/>
	</g>
</g>
<g>
</g>
<g>
</g>
<g>
</g>
<g>
</g>
<g>
</g>
<g>
</g>
<g>
</g>
<g>
</g>
<g>
</g>
<g>
</g>
<g>
</g>
<g>
</g>
<g>
</g>
<g>
</g>
<g>
</g>
</svg>
