<?xml version="1.0" encoding="iso-8859-1"?>
<!-- Generator: Adobe Illustrator 19.0.0, SVG Export Plug-In . SVG Version: 6.00 Build 0)  -->
<svg version="1.1" id="Layer_1" xmlns="http://www.w3.org/2000/svg" xmlns:xlink="http://www.w3.org/1999/xlink" x="0px" y="0px"
	 viewBox="0 0 419.084 419.084" style="enable-background:new 0 0 419.084 419.084;" xml:space="preserve">
<g id="XMLID_1464_">
	<rect id="XMLID_3404_" x="41.585" y="177.542" style="fill:#ECF0F1;" width="335" height="199"/>
	<rect id="XMLID_3400_" x="81.585" y="291.542" style="fill:#F87F6E;" width="47.5" height="45"/>
	<rect id="XMLID_3396_" x="289.085" y="291.542" style="fill:#F87F6E;" width="47.5" height="45"/>
	<path id="XMLID_3392_" style="fill:#F87F6E;" d="M70.171,42.542c18.522,0,37.044,0,55.566,0c-12.034,54-24.069,81-36.103,135
		c-26.545,0-53.09,0-79.634,0C30.056,123.542,50.114,96.542,70.171,42.542z"/>
	<path id="XMLID_3388_" style="fill:#F87F6E;" d="M125.737,42.542c18.522,0,37.044,0,55.565,0c-4.011,54-8.023,81-12.034,135
		c-26.545,0-53.089,0-79.634,0C101.668,123.542,113.702,96.542,125.737,42.542z"/>
	<path id="XMLID_3384_" style="fill:#F87F6E;" d="M181.302,42.542c18.522,0,37.044,0,55.566,0c4.012,54,8.023,81,12.034,135
		c-26.545,0-53.09,0-79.635,0C173.279,123.542,177.291,96.542,181.302,42.542z"/>
	<path id="XMLID_3380_" style="fill:#F87F6E;" d="M236.868,42.542c18.522,0,37.044,0,55.566,0c12.034,54,24.069,81,36.103,135
		c-26.545,0-53.089,0-79.634,0C244.891,123.542,240.879,96.542,236.868,42.542z"/>
	<path id="XMLID_3376_" style="fill:#F87F6E;" d="M292.433,42.542c18.522,0,37.044,0,55.566,0c20.057,54,40.114,81,60.172,135
		c-26.545,0-53.089,0-79.634,0C316.502,123.542,304.468,96.542,292.433,42.542z"/>
	<rect id="XMLID_3373_" x="10.085" y="177.542" style="fill:#4CD1B6;" width="399" height="40"/>
	<rect id="XMLID_3367_" x="169.085" y="260.542" style="fill:#F87F6E;" width="80" height="116"/>
	<g id="XMLID_45_">
		<path id="XMLID_262_" style="fill:#231F20;" d="M129.084,281.542h-47.5c-5.523,0-10,4.477-10,10v45c0,5.523,4.477,10,10,10h47.5
			c5.523,0,10-4.477,10-10v-45C139.084,286.019,134.607,281.542,129.084,281.542z M119.084,326.542h-27.5v-25h27.5V326.542z"/>
		<path id="XMLID_221_" style="fill:#231F20;" d="M336.584,281.542h-47.5c-5.522,0-10,4.477-10,10v45c0,5.523,4.478,10,10,10h47.5
			c5.522,0,10-4.477,10-10v-45C346.584,286.019,342.107,281.542,336.584,281.542z M326.584,326.542h-27.5v-25h27.5V326.542z"/>
		<path id="XMLID_171_" style="fill:#231F20;" d="M419.084,177.542c0-2.729-1.096-5.201-2.869-7.005
			C406.44,144.782,367.22,65.571,357.372,39.06c-1.455-3.918-5.194-6.518-9.374-6.518H70.17c-4.18,0-7.919,2.6-9.374,6.518
			c-9.847,26.511-49.961,107.511-60.171,135c-0.574,1.546-0.747,3.185-0.54,4.774c0,0,0,42.843,0,43.708c0,5.523,4.477,10,10,10
			c10.212,0,16.56-2.3,21.5-4.624v148.624c0,5.523,4.477,10,10,10h335c5.522,0,10-4.477,10-10V227.439
			c5.084,2.475,11.586,5.103,22.5,5.103c5.522,0,10-4.477,10-10C419.084,221.677,419.084,177.542,419.084,177.542z M393.573,167.542
			H336.51h-0.004c-5.508-23.553-26.458-94.095-31.488-115h36.076C350.494,76.865,385.516,147.581,393.573,167.542z M190.565,52.542
			L190.565,52.542l37.038,0c1.784,22.688,8.772,93.236,10.501,115h-58.038C181.794,145.778,188.781,75.223,190.565,52.542z
			 M258.166,167.542L258.166,167.542c-1.784-22.676-8.771-93.232-10.5-115h36.792c5.509,23.561,26.466,94.088,31.496,115H258.166z
			 M160.002,167.542h-57.784c5.029-20.904,25.98-91.447,31.489-115.002l0.003,0.002h36.793
			C168.774,74.31,161.786,144.858,160.002,167.542z M77.074,52.542h36.081c-5.031,20.913-25.987,91.44-31.496,115H24.594
			C32.653,147.581,67.674,76.865,77.074,52.542z M179.084,366.542v-96h60v96H179.084z M259.084,366.542v-106c0-5.523-4.478-10-10-10
			h-80c-5.523,0-10,4.477-10,10v106h-107.5V222.571c6.498,0.219,9.647,1.791,13.877,3.911c5.387,2.7,12.091,6.06,24.433,6.06
			c12.341,0,19.045-3.36,24.431-6.06c4.563-2.288,7.86-3.94,15.469-3.94c7.609,0,10.906,1.653,15.47,3.94
			c5.387,2.7,12.09,6.06,24.431,6.06s19.044-3.36,24.431-6.06c4.563-2.288,7.86-3.94,15.469-3.94c7.608,0,10.905,1.652,15.468,3.939
			c5.387,2.7,12.09,6.061,24.431,6.061c12.34,0,19.043-3.36,24.429-6.061c4.563-2.287,7.858-3.939,15.466-3.939
			c7.608,0,10.905,1.652,15.468,3.94c5.387,2.7,12.09,6.06,24.43,6.06c12.341,0,19.045-3.36,24.432-6.06
			c4.006-2.008,7.038-3.526,12.867-3.867v143.927H259.084z M369.186,202.542c-12.341,0-19.045,3.36-24.432,6.06
			c-4.563,2.288-7.859,3.94-15.469,3.94c-7.607,0-10.904-1.652-15.467-3.939c-5.387-2.7-12.09-6.061-24.431-6.061
			c-12.34,0-19.043,3.36-24.429,6.061c-4.563,2.287-7.858,3.939-15.466,3.939c-7.608,0-10.905-1.652-15.468-3.939
			c-5.387-2.7-12.09-6.061-24.431-6.061s-19.044,3.36-24.431,6.06c-4.563,2.288-7.86,3.94-15.469,3.94s-10.906-1.652-15.469-3.94
			c-5.386-2.7-12.09-6.06-24.432-6.06c-12.341,0-19.044,3.36-24.431,6.06c-4.563,2.288-7.86,3.94-15.469,3.94
			c-7.611,0-10.908-1.653-15.472-3.94c-5.387-2.7-12.091-6.06-24.433-6.06c-12.342,0-19.046,3.36-24.433,6.06
			c-1.909,0.957-3.598,1.799-5.472,2.459v-23.52h69.548h79.634h79.635h79.634h70.549v23.519c-1.872-0.66-3.561-1.502-5.468-2.458
			C388.23,205.902,381.527,202.542,369.186,202.542z"/>
		<path id="XMLID_140_" style="fill:#231F20;" d="M129.084,249.542h-47.5c-5.523,0-10,4.477-10,10s4.477,10,10,10h47.5
			c5.523,0,10-4.477,10-10S134.607,249.542,129.084,249.542z"/>
		<path id="XMLID_49_" style="fill:#231F20;" d="M336.584,249.542h-47.5c-5.522,0-10,4.477-10,10s4.478,10,10,10h47.5
			c5.522,0,10-4.477,10-10S342.107,249.542,336.584,249.542z"/>
	</g>
</g>
<g>
</g>
<g>
</g>
<g>
</g>
<g>
</g>
<g>
</g>
<g>
</g>
<g>
</g>
<g>
</g>
<g>
</g>
<g>
</g>
<g>
</g>
<g>
</g>
<g>
</g>
<g>
</g>
<g>
</g>
</svg>
