<?xml version="1.0" encoding="iso-8859-1"?>
<!-- Generator: Adobe Illustrator 19.0.0, SVG Export Plug-In . SVG Version: 6.00 Build 0)  -->
<svg version="1.1" id="Layer_1" xmlns="http://www.w3.org/2000/svg" xmlns:xlink="http://www.w3.org/1999/xlink" x="0px" y="0px"
	 viewBox="0 0 410 410" style="enable-background:new 0 0 410 410;" xml:space="preserve">
<g id="XMLID_117_">
	<polygon id="XMLID_4019_" style="fill:#4CD1B6;" points="10,116 140,86 140,336 10,366 	"/>
	<polygon id="XMLID_4015_" style="fill:#4CD1B6;" points="140,86 270,146 270,396 140,336 	"/>
	<polygon id="XMLID_4010_" style="fill:#4CD1B6;" points="270,146 400,116 400,366 270,396 	"/>
	<circle id="XMLID_4006_" style="fill:#F87F6E;" cx="207.5" cy="41.5" r="27.5"/>
	<g id="XMLID_2_">
		<path id="XMLID_924_" style="fill:#231F20;" d="M406.226,108.174c-2.386-1.896-5.505-2.602-8.475-1.918l-126.666,29.23
			l-53.737-24.802l0.127-33.042C233.324,73.263,245,58.724,245,41.5C245,20.822,228.178,4,207.5,4S170,20.822,170,41.5
			c0,17.205,11.651,31.731,27.474,36.128l-0.092,23.842L144.19,76.92c-0.032-0.015-0.062-0.019-0.093-0.03
			c-1.971-0.886-4.196-1.129-6.346-0.634l-130,30C3.214,107.303,0,111.344,0,116v250c0,3.048,1.39,5.929,3.774,7.826
			C5.562,375.247,7.761,376,10,376c0.75,0,1.504-0.084,2.249-0.256l126.666-29.23L265.81,405.08c1.335,0.615,2.765,0.92,4.189,0.92
			h0h0c0.694-0.012,3-0.429,3-0.429l129.249-29.827c4.537-1.047,7.751-5.088,7.751-9.744V116
			C410,112.952,408.61,110.071,406.226,108.174z M190,41.5c0-9.649,7.851-17.5,17.5-17.5S225,31.851,225,41.5S217.149,59,207.5,59
			S190,51.149,190,41.5z M20,123.955L130,98.57v229.475L20,353.43V123.955z M150,101.629l47.298,21.83L197,200.962
			c-0.021,5.522,4.438,10.017,9.962,10.038c0.013,0,0.025,0,0.039,0c5.505,0,9.978-4.452,9.999-9.962l0.263-68.365L260,152.398
			v227.973l-110-50.77V101.629z M390,358.045L280,383.43V153.955l110-25.385V358.045z"/>
	</g>
</g>
<g>
</g>
<g>
</g>
<g>
</g>
<g>
</g>
<g>
</g>
<g>
</g>
<g>
</g>
<g>
</g>
<g>
</g>
<g>
</g>
<g>
</g>
<g>
</g>
<g>
</g>
<g>
</g>
<g>
</g>
</svg>
